0
SECTION
2
HEADER
9
$INSUNITS
70
4
9
$ACADVER
1
AC1014
9
$HANDSEED
5
FFFF
0
ENDSEC
0
SECTION
2
TABLES
0
TABLE
2
VPORT
5
8
100
AcDbSymbolTable
0
ENDTAB
0
TABLE
2
LTYPE
5
5
100
AcDbSymbolTable
0
LTYPE
5
14
100
AcDbSymbolTableRecord
100
AcDbLinetypeTableRecord
2
BYBLOCK
70
0
0
LTYPE
5
15
100
AcDbSymbolTableRecord
100
AcDbLinetypeTableRecord
2
BYLAYER
70
0
0
ENDTAB
0
TABLE
2
LAYER
5
2
100
AcDbSymbolTable
70
2
0
LAYER
5
50
100
AcDbSymbolTableRecord
100
AcDbLayerTableRecord
2
0
70
0
6
CONTINUOUS
0
ENDTAB
0
TABLE
2
STYLE
5
3
100
AcDbSymbolTable
70
1
0
STYLE
5
11
100
AcDbSymbolTableRecord
100
AcDbTextStyleTableRecord
2
STANDARD
70
0
0
ENDTAB
0
TABLE
2
VIEW
5
6
100
AcDbSymbolTable
70
0
0
ENDTAB
0
TABLE
2
UCS
5
7
100
AcDbSymbolTable
70
0
0
ENDTAB
0
TABLE
2
APPID
5
9
100
AcDbSymbolTable
70
2
0
APPID
5
12
100
AcDbSymbolTableRecord
100
AcDbRegAppTableRecord
2
ACAD
70
0
0
ENDTAB
0
TABLE
2
DIMSTYLE
5
A
100
AcDbSymbolTable
70
1
0
ENDTAB
0
TABLE
2
BLOCK_RECORD
5
1
100
AcDbSymbolTable
70
1
0
BLOCK_RECORD
5
1F
100
AcDbSymbolTableRecord
100
AcDbBlockTableRecord
2
*MODEL_SPACE
0
BLOCK_RECORD
5
1B
100
AcDbSymbolTableRecord
100
AcDbBlockTableRecord
2
*PAPER_SPACE
0
ENDTAB
0
ENDSEC
0
SECTION
2
BLOCKS
0
BLOCK
5
20
100
AcDbEntity
100
AcDbBlockBegin
2
*MODEL_SPACE
0
ENDBLK
5
21
100
AcDbEntity
100
AcDbBlockEnd
0
BLOCK
5
1C
100
AcDbEntity
100
AcDbBlockBegin
2
*PAPER_SPACE
0
ENDBLK
5
1D
100
AcDbEntity
100
AcDbBlockEnd
0
ENDSEC
0
SECTION
2
ENTITIES
0
LWPOLYLINE
5
100
100
AcDbEntity
8
0
100
AcDbPolyline
90
4
70
1
43
0.0
10
-939.4999999999992
20
-84.000000000000171
10
-815.49999999999932
20
-84.000000000000469
10
-815.49999999999966
20
-298.00000000000051
10
-939.49999999999955
20
-298.00000000000017
0
LWPOLYLINE
5
101
100
AcDbEntity
8
0
100
AcDbPolyline
90
4
70
1
43
0.0
10
-806.99999999999955
20
-306.50000000000051
10
-806.99999999999909
20
-75.500000000000469
10
-947.99999999999909
20
-75.500000000000114
10
-947.99999999999966
20
-306.50000000000017
0
LWPOLYLINE
5
102
100
AcDbEntity
8
0
100
AcDbPolyline
90
24
70
1
43
0.0
10
-758.14616961909655
20
-313.28056253321802
10
-758.14616961909621
20
-304.78056253321802
10
-771.6461696190961
20
-304.78056253321756
10
-771.64616961908791
20
-90.780562533217463
10
-758.14616961908791
20
-90.780562533218045
10
-758.14616961908757
20
-82.280562533217989
10
-744.64616961908757
20
-82.2805625332185
10
-744.64616961908791
20
-90.780562533218557
10
-731.14616961908791
20
-90.780562533219111
10
-731.14616961908769
20
-82.280562533219026
10
-717.64616961908757
20
-82.280562533219552
10
-717.64616961908791
20
-90.780562533219594
10
-704.14616961908791
20
-90.780562533220106
10
-704.14616961908769
20
-82.280562533220078
10
-690.64616961908757
20
-82.280562533220632
10
-690.64616961909655
20
-313.28056253322069
10
-704.14616961909644
20
-313.28056253322012
10
-704.14616961909633
20
-304.78056253322012
10
-717.64616961909621
20
-304.78056253321961
10
-717.64616961909655
20
-313.28056253321961
10
-731.14616961909644
20
-313.2805625332191
10
-731.14616961909621
20
-304.78056253321904
10
-744.64616961909633
20
-304.78056253321853
10
-744.64616961909655
20
-313.28056253321853
0
LWPOLYLINE
5
103
100
AcDbEntity
8
0
100
AcDbPolyline
90
24
70
1
43
0.0
10
-643.61123780086803
20
-304.0547349766677
10
-643.61123780086905
20
-312.5547349766677
10
-657.11123780086905
20
-312.55473497666605
10
-657.11123780086814
20
-304.054734976666
10
-670.61123780086791
20
-304.05473497666435
10
-670.61123780084108
20
-90.054734976664278
10
-657.11123780084108
20
-90.054734976665983
10
-657.11123780083994
20
-81.554734976665983
10
-643.61123780083994
20
-81.554734976667689
10
-643.61123780084097
20
-90.054734976667675
10
-630.11123780084097
20
-90.054734976669394
10
-630.11123780083994
20
-81.55473497666938
10
-616.61123780083994
20
-81.554734976671085
10
-616.61123780084097
20
-90.054734976671085
10
-603.11123780084097
20
-90.05473497667279
10
-603.11123780083994
20
-81.55473497667279
10
-589.61123780083983
20
-81.554734976674496
10
-589.61123780086905
20
-312.55473497667452
10
-603.11123780086905
20
-312.55473497667288
10
-603.11123780086791
20
-304.05473497667282
10
-616.61123780086803
20
-304.05473497667111
10
-616.61123780086905
20
-312.55473497667111
10
-630.11123780086916
20
-312.55473497666947
10
-630.11123780086803
20
-304.05473497666941
0
LWPOLYLINE
5
104
100
AcDbEntity
8
0
100
AcDbPolyline
90
24
70
1
43
0.0
10
-508.07286163978569
20
-266.94699974498627
10
-508.07286163978563
20
-258.44699974498621
10
-521.57286163978551
20
-258.44699974498616
10
-521.57286163978563
20
-266.94699974498621
10
-535.07286163978563
20
-266.9469997449861
10
-535.07286163978551
20
-258.4469997449861
10
-548.57286163978551
20
-258.44699974498604
10
-548.57286163978563
20
-266.94699974498604
10
-562.07286163978563
20
-266.94699974498599
10
-562.07286163978563
20
-258.44699974498599
10
-575.57286163978563
20
-258.44699974498593
10
-575.57286163978506
20
-134.44699974498593
10
-562.07286163978506
20
-134.44699974498599
10
-562.07286163978506
20
-125.94699974498599
10
-548.57286163978506
20
-125.94699974498604
10
-548.57286163978506
20
-134.44699974498607
10
-535.07286163978506
20
-134.4469997449861
10
-535.07286163978495
20
-125.94699974498612
10
-521.57286163978495
20
-125.94699974498617
10
-521.57286163978506
20
-134.44699974498619
10
-508.07286163978512
20
-134.44699974498624
10
-508.07286163978506
20
-125.94699974498624
10
-494.572861639785
20
-125.9469997449863
10
-494.57286163978557
20
-266.94699974498633
0
LWPOLYLINE
5
105
100
AcDbEntity
8
0
100
AcDbPolyline
90
24
70
1
43
0.0
10
-467.59586044236801
20
-268.44868166676679
10
-467.59586044236801
20
-259.94868166676673
10
-481.09586044236801
20
-259.94868166676673
10
-481.09586044236806
20
-135.94868166676676
10
-467.59586044236812
20
-135.94868166676673
10
-467.59586044236812
20
-127.44868166676676
10
-454.09586044236812
20
-127.44868166676673
10
-454.09586044236812
20
-135.94868166676667
10
-440.59586044236812
20
-135.9486816667667
10
-440.59586044236812
20
-127.44868166676669
10
-427.09586044236806
20
-127.44868166676669
10
-427.09586044236806
20
-135.94868166676667
10
-413.59586044236806
20
-135.94868166676667
10
-413.59586044236806
20
-127.44868166676669
10
-400.09586044236812
20
-127.44868166676666
10
-400.09586044236801
20
-268.44868166676667
10
-413.59586044236801
20
-268.44868166676667
10
-413.59586044236789
20
-259.94868166676667
10
-427.09586044236795
20
-259.94868166676667
10
-427.09586044236795
20
-268.44868166676667
10
-440.59586044236795
20
-268.44868166676667
10
-440.59586044236795
20
-259.94868166676667
10
-454.09586044236795
20
-259.94868166676667
10
-454.09586044236795
20
-268.44868166676667
0
LWPOLYLINE
5
106
100
AcDbEntity
8
0
100
AcDbPolyline
90
8
70
1
43
0.0
10
-341.17070721187793
20
-146.17563615631605
10
-341.17070721187804
20
-206.17563615631605
10
-301.17070721187804
20
-206.17563615631607
10
-301.17070721187793
20
-146.17563615631607
10
-296.17070721187798
20
-146.17563615631607
10
-296.17070721187804
20
-256.17563615631605
10
-380.67070721187798
20
-256.17563615631599
10
-380.67070721187798
20
-146.17563615631605
0
LWPOLYLINE
5
107
100
AcDbEntity
8
0
100
AcDbPolyline
90
4
70
1
43
0.0
10
-150.2025626401682
20
-203.92595832774791
10
-150.2025626401682
20
-54.925958327747907
10
-158.20256264016814
20
-54.925958327747892
10
-158.20256264016817
20
-203.92595832774788
0
LWPOLYLINE
5
108
100
AcDbEntity
8
0
100
AcDbPolyline
90
4
70
1
43
0.0
10
-123.70256264016862
20
-203.92595832774794
10
-123.70256264016861
20
-54.925958327747949
10
-131.70256264016854
20
-54.925958327747963
10
-131.70256264016859
20
-203.92595832774794
0
LWPOLYLINE
5
109
100
AcDbEntity
8
0
100
AcDbPolyline
90
4
70
1
43
0.0
10
-100.70256264016896
20
-203.92595832774802
10
-100.70256264016894
20
-54.925958327747999
10
-108.70256264016889
20
-54.925958327747999
10
-108.70256264016894
20
-203.92595832774802
0
LWPOLYLINE
5
110
100
AcDbEntity
8
0
100
AcDbPolyline
90
4
70
1
43
0.0
10
-77.202562640164388
20
-203.92595832774791
10
-77.202562640164359
20
-54.925958327747907
10
-85.202562640164317
20
-54.925958327747928
10
-85.202562640164359
20
-203.92595832774791
0
LWPOLYLINE
5
111
100
AcDbEntity
8
0
100
AcDbPolyline
90
4
70
1
43
0.0
10
-161.91260405431541
20
-353.89177395214961
10
-76.412604054315437
20
-353.89177395214961
10
-76.412604054315437
20
-229.89177395214955
10
-161.91260405431541
20
-229.89177395214955
0
LWPOLYLINE
5
112
100
AcDbEntity
8
0
100
AcDbPolyline
90
4
70
1
43
0.0
10
-57.738592530840322
20
-357.77469436980914
10
-57.738592530840322
20
-233.77469436980917
10
156.26140746915971
20
-233.77469436980917
10
156.26140746915974
20
-357.77469436980914
0
LWPOLYLINE
5
113
100
AcDbEntity
8
0
100
AcDbPolyline
90
4
70
1
43
0.0
10
152.76140746915971
20
-146.77469436980908
10
152.76140746915971
20
-224.27469436980908
10
-54.238592530840322
20
-224.27469436980908
10
-54.238592530840322
20
-146.77469436980908
0
LWPOLYLINE
5
114
100
AcDbEntity
8
0
100
AcDbPolyline
90
4
70
1
43
0.0
10
-54.238592530840357
20
-60.274694369809211
10
-54.238592530840364
20
-137.7746943698092
10
152.76140746915965
20
-137.77469436980925
10
152.76140746915968
20
-60.274694369809239
0
LWPOLYLINE
5
115
100
AcDbEntity
8
0
100
AcDbPolyline
90
4
70
1
43
0.0
10
378.61794509636093
20
-48.517074644481625
10
378.61794509636093
20
-126.01707464448162
10
171.61794509636087
20
-126.01707464448165
10
171.61794509636087
20
-48.517074644481646
0
LWPOLYLINE
5
116
100
AcDbEntity
8
0
100
AcDbPolyline
90
4
70
1
43
0.0
10
171.61794509636121
20
-141.27856725977014
10
171.61794509636121
20
-218.77856725977011
10
378.61794509636127
20
-218.77856725977011
10
378.61794509636127
20
-141.27856725977009
0
LWPOLYLINE
5
117
100
AcDbEntity
8
0
100
AcDbPolyline
90
4
70
1
43
0.0
10
168.76140746915974
20
-350.7746943698092
10
168.76140746915968
20
-240.7746943698092
10
253.26140746915968
20
-240.77469436980914
10
253.26140746915971
20
-350.7746943698092
0
LWPOLYLINE
5
118
100
AcDbEntity
8
0
100
AcDbPolyline
90
4
70
1
43
0.0
10
282.26140746915996
20
-233.77469436980928
10
366.76140746915991
20
-233.77469436980931
10
366.76140746915985
20
-357.77469436980937
10
282.26140746915985
20
-357.77469436980931
0
LWPOLYLINE
5
119
100
AcDbEntity
8
0
100
AcDbPolyline
90
4
70
1
43
0.0
10
695.56800298618373
20
-219.2137966676089
10
695.56800298618373
20
-231.51379666760891
10
680.36800298618368
20
-231.51379666760889
10
680.36800298618368
20
-219.21379666760888
0
LWPOLYLINE
5
120
100
AcDbEntity
8
0
100
AcDbPolyline
90
4
70
1
43
0.0
10
701.48011048337241
20
-148.88216644542521
10
701.48011048337241
20
-199.78216644542522
10
675.68011048337235
20
-199.78216644542522
10
675.68011048337235
20
-148.88216644542518
0
LWPOLYLINE
5
121
100
AcDbEntity
8
0
100
AcDbPolyline
90
4
70
1
43
0.0
10
656.48011048337241
20
-151.88216644542518
10
656.4801104833723
20
-239.88216644542518
10
501.48011048337224
20
-239.88216644542504
10
501.48011048337241
20
-151.88216644542504
0
LWPOLYLINE
5
122
100
AcDbEntity
8
0
100
AcDbPolyline
90
4
70
1
43
0.0
10
486.48011048337224
20
-271.38216644542501
10
486.48011048337241
20
-130.38216644542504
10
717.48011048337253
20
-130.38216644542524
10
717.4801104833723
20
-271.38216644542524
0
ENDSEC
0
SECTION
2
OBJECTS
0
DICTIONARY
5
C
100
AcDbDictionary
3
ACAD_GROUP
350
D
3
ACAD_MLINESTYLE
350
17
0
DICTIONARY
5
D
100
AcDbDictionary
0
DICTIONARY
5
1A
330
C
100
AcDbDictionary
0
DICTIONARY
5
17
100
AcDbDictionary
0
ENDSEC
0
EOF
